<svg xmlns="http://www.w3.org/2000/svg" width="1200" height="820" viewBox="0 0 1200 820" role="img" aria-label="Mental Health NLP">
  <defs>
    <linearGradient id="g" x1="0" x2="1" y1="0" y2="1">
      <stop offset="0" stop-color="#2563eb"/>
      <stop offset="1" stop-color="#7c3aed"/>
    </linearGradient>
    <radialGradient id="r" cx="35%" cy="25%" r="80%">
      <stop offset="0" stop-color="#ffffff" stop-opacity=".34"/>
      <stop offset="1" stop-color="#ffffff" stop-opacity="0"/>
    </radialGradient>
    <filter id="shadow" x="-20%" y="-20%" width="140%" height="140%">
      <feDropShadow dx="0" dy="18" stdDeviation="18" flood-color="#0f172a" flood-opacity=".22"/>
    </filter>
  </defs>
  <rect width="1200" height="820" rx="42" fill="url(#g)"/>
  <rect width="1200" height="820" rx="42" fill="url(#r)"/>
  <circle cx="985" cy="120" r="155" fill="#fff" opacity=".13"/>
  <circle cx="1040" cy="690" r="240" fill="#fff" opacity=".09"/>
  <g filter="url(#shadow)">
    <rect x="110" y="120" width="980" height="580" rx="38" fill="#fff" opacity=".90"/>
    <rect x="150" y="165" width="900" height="92" rx="24" fill="#0f172a" opacity=".07"/>
    <text x="190" y="225" font-family="Inter, Arial, sans-serif" font-size="46" font-weight="800" fill="#0f172a">Mental Health NLP</text>
    <text x="190" y="294" font-family="Inter, Arial, sans-serif" font-size="30" font-weight="650" fill="#334155">HAN-DistilBERT · RoBERTa fusion</text>
    <circle cx="258" cy="462" r="105" fill="#2563eb" opacity=".18"/>
    <circle cx="258" cy="462" r="78" fill="#2563eb" opacity=".96"/>
    <text x="258" y="485" text-anchor="middle" font-family="Inter, Arial, sans-serif" font-size="52" font-weight="900" fill="#fff">AI</text>
    <g font-family="Inter, Arial, sans-serif" font-size="29" font-weight="700" fill="#0f172a">
      <text x="420" y="405">• Depression detection</text>
      <text x="420" y="465">• Severity classification</text>
      <text x="420" y="525">• Transformer-based text analysis</text>
    </g>
    <rect x="420" y="590" width="230" height="54" rx="27" fill="#7c3aed" opacity=".95"/>
    <text x="535" y="625" text-anchor="middle" font-family="Inter, Arial, sans-serif" font-size="23" font-weight="800" fill="#fff">Research Project</text>
  </g>
</svg>